# xmcd
#
# Track frame offsets: 
#        150
#        21958
#        43863
#        68022
#        91724
#        115316
#        135651
#        164470
#        183862
#        208297
#        234267
#        258518
#
# Disc length: 3756 seconds
#
# Revision: 2
# Processed by: cddbd v1.5.2PL0 Copyright (c) Steve Scherf et al.
# Submitted via: ExactAudioCopy v0.95a4
#
DISCID=a20eaa0c
DTITLE=Drive-By Truckers - It's Great to Be Alive
DYEAR=2015
DGENRE=Country
TTITLE0=Lookout Mountain
TTITLE1=Where the Devil Don't Stay
TTITLE2=Sink Hole
TTITLE3=Made Up English Oceans
TTITLE4=The Righteous Path
TTITLE5=Women Without Whiskey
TTITLE6=The Living Bubba
TTITLE7=Primer Coat
TTITLE8=Mercy Buckets
TTITLE9=Marry Me
TTITLE10=Tornadoes
TTITLE11=Sounds Better in the Song
EXTD=
EXTT0=
EXTT1=
EXTT2=
EXTT3=
EXTT4=
EXTT5=
EXTT6=
EXTT7=
EXTT8=
EXTT9=
EXTT10=
EXTT11=
PLAYORDER=
